<svg width="196" height="196" viewBox="0 0 196 196" fill="none" xmlns="http://www.w3.org/2000/svg">
<g clip-path="url(#clip0_225_180)">
<path d="M196 0H0V196H196V0Z" fill="#000102"/>
<rect x="-19.6354" y="74.2709" width="52.8318" height="362.705" transform="rotate(-90.4302 -19.6354 74.2709)" fill="#000102"/>
<rect width="92.4557" height="274.319" transform="matrix(0.0075085 0.999972 0.999972 -0.0075085 -19.6354 74.2709)" fill="#000102"/>
<path d="M70.389 120.239L116.586 120.058L116.767 166.256L70.5701 166.437L70.389 120.239Z" fill="#295C66"/>
<path d="M116.404 73.8617L162.602 73.6805L116.585 120.059L70.3886 120.24L116.404 73.8617Z" fill="#295C66"/>
<path d="M116.586 120.058L208.619 27.301L208.8 73.4991L116.767 166.256L116.586 120.058" fill="#295C66"/>
<path d="M162.539 74.4545L116.341 74.6113L116.126 25.5895L162.324 25.4327L162.539 74.4545Z" fill="#DA4A25"/>
<path d="M116.404 73.8613L24.3719 166.619L24.1907 120.42L116.223 27.6633L116.404 73.8613Z" fill="#295C66"/>
<path d="M162.783 119.877L208.981 119.696L209.162 165.894L162.964 166.075L162.783 119.877Z" fill="#295C66"/>
<path d="M208.8 73.4995L254.998 73.3184L208.981 119.696L162.783 119.877L208.8 73.4995Z" fill="#295C66"/>
<path d="M-22.0064 120.602L24.1904 120.421L24.3716 166.619L-21.8253 166.8L-22.0064 120.602" fill="#295C66"/>
<path d="M24.0086 74.224L70.2067 74.0428L24.1898 120.421L-22.0071 120.602L24.0086 74.224" fill="#295C66"/>
<path d="M70.0835 74.4545L23.8852 74.6113L23.6747 26.5537L69.8729 26.3969L70.0835 74.4545Z" fill="#DA4A25"/>
<path d="M24.0094 74.2236L-68.0231 166.981L-68.2043 120.783L23.8282 28.0255L24.0094 74.2236" fill="#295C66"/>
<g clip-path="url(#clip1_225_180)">
<path d="M70.3885 120.24L116.585 120.059L116.766 166.257L70.5696 166.438L70.3885 120.24Z" fill="#DA4A25"/>
<path d="M116.404 73.8614L162.602 73.6802L116.585 120.058L70.3882 120.239L116.404 73.8614Z" fill="#E380ED"/>
<path d="M116.586 120.058L208.619 27.3006L208.8 73.4987L116.767 166.256L116.586 120.058" fill="#0052FF"/>
<path d="M162.602 73.6804L116.404 73.8615L116.223 27.6635L162.421 27.4823L162.602 73.6804Z" fill="#DA4A25"/>
<path d="M116.405 73.8612L24.372 166.618L24.1908 120.42L116.223 27.6631L116.405 73.8612Z" fill="#0052FF"/>
<path d="M162.784 119.877L208.981 119.696L209.163 165.894L162.965 166.075L162.784 119.877Z" fill="#DA4A25"/>
<path d="M208.8 73.4992L254.998 73.318L208.981 119.696L162.783 119.877L208.8 73.4992Z" fill="#E380ED"/>
<path d="M-22.0064 120.602L24.1904 120.421L24.3716 166.619L-21.8253 166.8L-22.0064 120.602" fill="#DA4A25"/>
<path d="M24.0087 74.2236L70.2068 74.0425L24.1899 120.42L-22.0069 120.602L24.0087 74.2236" fill="#E380ED"/>
<path d="M70.2064 74.0426L24.0084 74.2237L23.8272 28.0256L70.0253 27.8445L70.2064 74.0426Z" fill="#DA4A25"/>
<path d="M24.0092 74.2234L-68.0234 166.981L-68.2046 120.783L23.828 28.0253L24.0092 74.2234" fill="#0052FF"/>
</g>
</g>
<defs>
<clipPath id="clip0_225_180">
<rect width="196" height="196" fill="white"/>
</clipPath>
<clipPath id="clip1_225_180">
<rect width="831.265" height="92.3628" fill="white" transform="translate(671.004 164.083) rotate(179.775)"/>
</clipPath>
</defs>
</svg>
